<?xml version="1.0" standalone="no"?>
<!DOCTYPE svg PUBLIC "-//W3C//DTD SVG 20010904//EN"
 "http://www.w3.org/TR/2001/REC-SVG-20010904/DTD/svg10.dtd">
<svg version="1.0" xmlns="http://www.w3.org/2000/svg"
 width="1440.000000pt" height="1440.000000pt" viewBox="0 0 1440.000000 1440.000000"
 preserveAspectRatio="xMidYMid meet">

<g transform="translate(0.000000,1440.000000) scale(0.100000,-0.100000)"
fill="#000000" stroke="none">
<path d="M7746 10878 c-355 -366 -851 -861 -885 -883 -21 -13 -65 -31 -97 -41
-51 -15 -69 -15 -159 -4 -79 10 -117 10 -171 1 -121 -21 -192 -78 -167 -134
13 -28 42 -39 203 -77 195 -46 252 -155 167 -322 -93 -182 -331 -358 -485
-358 -54 0 -85 18 -107 60 -19 37 -19 82 2 197 20 112 10 158 -43 211 -32 32
-38 34 -88 30 -66 -5 -109 -35 -170 -116 -62 -84 -121 -142 -144 -142 -34 0
-90 57 -103 103 -37 139 109 398 309 545 108 79 196 117 332 143 154 29 163
157 13 200 -73 21 -232 17 -326 -10 -323 -89 -591 -349 -735 -711 -89 -223
-126 -429 -126 -700 0 -96 6 -220 13 -275 50 -391 194 -775 407 -1080 278
-401 649 -671 1137 -829 532 -172 1101 -132 1579 111 480 244 896 695 1101
1193 105 254 187 585 223 900 34 302 -10 536 -116 606 -38 25 -45 26 -135 22
l-95 -5 -147 195 c-82 107 -172 224 -200 261 l-53 66 0 105 c0 178 -39 278
-122 319 -55 26 -83 26 -131 1 -20 -11 -41 -20 -45 -20 -8 0 -243 299 -265
337 -6 9 8 32 43 73 l51 59 -28 14 c-51 26 -212 78 -261 83 l-47 6 -129 -134z
m250 -320 c22 -29 82 -108 133 -175 l94 -123 -59 -72 c-92 -116 -311 -327
-412 -398 -160 -112 -371 -230 -484 -270 l-36 -13 -84 68 c-45 38 -85 70 -87
71 -2 2 23 32 56 66 84 89 184 197 368 398 88 96 192 209 230 250 39 41 105
114 149 163 43 48 82 87 86 87 4 0 25 -24 46 -52z m794 -1037 c108 -142 131
-177 122 -190 -6 -9 -37 -59 -68 -111 -107 -178 -179 -274 -284 -379 -169
-171 -330 -281 -411 -281 -105 0 -77 80 148 422 185 282 269 459 324 686 10
40 15 50 24 40 7 -7 72 -91 145 -187z"/>
<path d="M6556 10845 c-196 -26 -201 -29 -192 -109 8 -69 30 -100 66 -92 16 3
87 11 159 17 102 10 138 10 171 0 24 -7 106 -61 199 -132 86 -65 166 -119 177
-119 37 1 114 91 114 134 0 16 -48 59 -185 166 -101 80 -195 148 -207 152 -41
11 -130 6 -302 -17z"/>
<path d="M6355 9611 c-51 -23 -131 -111 -146 -161 -22 -74 20 -127 91 -114 56
9 107 41 143 89 103 134 49 249 -88 186z"/>
<path d="M9755 6341 c-52 -27 -95 -92 -95 -143 0 -83 44 -133 152 -173 96 -35
131 -115 80 -184 -27 -37 -27 -43 -1 -59 18 -12 26 -10 62 14 92 60 140 150
145 269 4 89 -13 144 -63 203 -68 81 -198 115 -280 73z"/>
<path d="M6285 5973 c-236 -15 -444 -133 -529 -301 -67 -131 -24 -322 102
-449 105 -106 202 -179 397 -298 205 -126 255 -174 255 -245 0 -45 -45 -92
-109 -115 -56 -19 -163 -19 -229 0 -133 40 -183 170 -84 215 29 13 32 19 27
45 -11 59 -68 113 -131 124 -147 26 -266 -80 -251 -225 14 -138 146 -250 356
-303 68 -17 115 -21 232 -21 220 0 345 32 463 119 62 46 98 92 134 169 23 50
26 70 26 157 -1 89 -4 107 -29 160 -60 127 -214 252 -563 460 -161 95 -204
153 -189 253 8 47 72 107 131 123 84 23 194 -11 229 -71 31 -52 15 -120 -35
-146 -35 -18 -37 -54 -5 -101 77 -114 289 -87 343 43 34 82 11 188 -58 261
-85 89 -308 156 -483 146z"/>
<path d="M7450 5949 c-148 -41 -287 -131 -348 -226 -17 -27 -39 -78 -48 -113
-30 -116 2 -242 87 -348 75 -95 238 -221 454 -352 146 -88 197 -129 219 -174
32 -67 11 -118 -66 -157 -153 -78 -393 -3 -393 122 0 33 6 46 28 65 16 13 35
24 44 24 12 0 14 7 9 33 -22 114 -160 163 -283 101 -65 -32 -103 -99 -103
-178 0 -155 149 -280 392 -331 106 -23 333 -20 437 5 161 39 291 131 348 249
24 48 29 71 31 158 6 163 -29 233 -175 358 -84 71 -278 203 -407 276 -93 52
-168 116 -186 159 -7 18 -10 52 -8 82 5 44 11 57 46 89 109 103 312 59 329
-70 5 -39 3 -44 -36 -81 -44 -42 -49 -65 -26 -110 51 -99 230 -106 317 -14 36
39 48 74 48 142 0 123 -104 227 -285 284 -44 14 -99 21 -205 24 -125 4 -155 1
-220 -17z"/>
<path d="M10555 5960 c-164 -33 -316 -124 -389 -234 -94 -142 -81 -319 35
-464 75 -95 245 -226 445 -345 187 -111 244 -168 244 -243 0 -36 -62 -96 -117
-112 -49 -15 -165 -16 -214 -2 -84 23 -155 100 -145 155 6 28 31 57 71 80 36
21 -15 109 -84 145 -42 22 -125 15 -185 -14 -46 -22 -59 -35 -80 -78 -85 -170
45 -347 309 -421 53 -15 111 -21 236 -24 146 -4 177 -2 250 16 175 44 303 133
357 248 23 49 27 75 30 160 6 163 -29 233 -175 358 -79 68 -280 204 -420 285
-146 84 -188 137 -181 228 4 49 10 60 45 93 110 103 313 60 330 -70 5 -39 3
-44 -36 -81 -46 -44 -51 -70 -21 -114 63 -97 226 -102 312 -10 36 39 48 74 48
142 0 182 -218 314 -515 311 -60 -1 -128 -5 -150 -9z"/>
<path d="M3985 5925 c-55 -7 -172 -29 -259 -49 -193 -44 -287 -46 -486 -12
-123 21 -136 22 -147 7 -20 -26 -16 -34 41 -79 66 -51 132 -148 146 -217 8
-33 10 -182 8 -435 l-3 -385 -32 -66 c-31 -62 -127 -169 -163 -181 -12 -4 -13
-9 -3 -31 14 -31 26 -32 120 -13 206 42 320 43 556 4 125 -20 128 -20 142 -2
8 11 15 22 15 25 0 4 -24 25 -54 47 -57 44 -128 140 -147 200 -15 49 -24 261
-11 274 12 12 78 -20 128 -64 20 -18 88 -102 152 -188 139 -186 208 -261 282
-304 190 -111 417 -53 519 134 34 61 36 70 35 155 -1 102 -22 185 -57 229
l-24 30 -44 -43 c-58 -55 -167 -109 -250 -122 -103 -16 -183 5 -384 103 -93
45 -174 86 -179 90 -6 4 87 8 205 8 237 0 287 8 397 61 83 41 174 130 210 206
24 53 27 69 27 173 0 106 -2 120 -28 172 -66 135 -211 232 -409 273 -82 18
-166 17 -303 0z m112 -114 c63 -29 101 -75 124 -153 62 -205 -28 -390 -242
-496 -92 -45 -182 -72 -241 -72 l-38 0 0 209 c0 231 8 291 47 369 66 131 229
198 350 143z"/>
<path d="M8940 5925 c-223 -40 -384 -146 -456 -300 -24 -49 -24 -54 -24 -395
0 -190 -5 -378 -10 -418 -13 -101 -55 -176 -142 -257 -61 -57 -68 -66 -58 -84
13 -25 2 -26 157 1 178 29 331 29 506 -1 134 -23 138 -23 152 -5 8 11 15 22
15 25 0 4 -22 24 -49 44 -106 81 -162 190 -164 319 l-2 80 34 23 c103 70 305
73 420 6 l43 -25 -4 -92 c-4 -74 -10 -102 -33 -151 -27 -57 -113 -154 -163
-186 -24 -14 -24 -15 -5 -38 l20 -24 94 16 c250 44 327 45 557 6 145 -24 137
-24 150 5 10 22 7 27 -33 55 -58 42 -108 104 -142 177 l-28 59 -5 410 -5 410
-29 55 c-64 122 -235 239 -401 276 -98 22 -302 26 -395 9z m280 -127 c106 -54
140 -153 140 -408 l0 -160 -40 20 c-126 64 -288 65 -411 1 -22 -12 -42 -21
-46 -21 -10 0 4 343 17 398 16 72 65 141 119 169 61 32 159 32 221 1z"/>
<path d="M4830 5864 c-14 -25 -13 -28 10 -43 50 -32 106 -90 137 -143 58 -96
63 -136 63 -498 0 -179 -5 -353 -10 -388 -16 -94 -80 -194 -167 -262 -48 -36
-49 -38 -30 -64 13 -18 19 -18 153 5 178 30 333 30 504 1 152 -27 147 -27 160
-2 9 16 0 30 -68 97 -87 87 -119 143 -134 240 -5 36 -8 210 -6 406 4 325 5
345 26 397 28 69 84 144 142 188 50 38 56 49 37 73 -11 15 -21 15 -122 -4
-193 -36 -474 -28 -660 19 -15 4 -25 -2 -35 -22z"/>
<path d="M3554 3871 c-2 -2 -4 -109 -4 -238 l0 -233 170 0 170 0 0 40 0 39
-117 3 -118 3 -3 192 -2 191 -46 4 c-25 2 -47 1 -50 -1z"/>
<path d="M4264 3871 c-2 -2 -4 -109 -4 -238 l0 -233 50 0 50 0 -2 236 -3 237
-43 1 c-24 0 -46 -1 -48 -3z"/>
<path d="M4734 3871 c-2 -2 -4 -22 -4 -43 l0 -38 75 0 76 0 -1 -192 -2 -193
47 0 47 0 -2 176 c0 96 2 183 6 192 5 14 20 17 75 17 l69 0 0 40 c0 22 -3 40
-7 40 -103 3 -376 4 -379 1z"/>
<path d="M5454 3871 c-2 -2 -4 -22 -4 -43 l0 -38 70 0 70 0 0 -195 0 -195 50
0 50 0 0 195 0 195 73 0 73 0 -1 40 c0 22 -2 40 -5 40 -58 3 -373 4 -376 1z"/>
<path d="M6228 3872 c-17 -3 -18 -23 -18 -238 l0 -234 165 0 165 0 0 40 0 40
-115 0 -115 0 0 194 0 194 -32 4 c-18 2 -41 2 -50 0z"/>
<path d="M8290 3869 c-95 -40 -149 -177 -121 -307 21 -100 80 -158 174 -171
112 -15 198 40 231 147 7 21 5 22 -44 22 -43 0 -52 -3 -59 -22 -25 -66 -117
-86 -166 -38 -73 74 -48 264 39 293 43 14 102 -7 121 -43 14 -27 20 -30 66
-30 48 0 50 1 43 23 -14 45 -35 77 -70 103 -30 23 -47 28 -112 31 -42 1 -88
-2 -102 -8z"/>
<path d="M10490 3638 l0 -238 180 0 180 0 0 40 0 39 -132 3 -133 3 0 60 0 60
110 0 c61 0 112 3 116 7 3 4 3 24 1 43 l-4 35 -114 0 -114 0 0 50 0 50 131 0
130 0 -3 41 -3 40 -173 2 -172 2 0 -237z"/>
<path d="M6930 3635 l0 -235 180 0 180 0 0 40 0 40 -130 0 -131 0 3 63 3 62
110 0 110 1 3 42 3 42 -115 0 -116 0 0 50 0 50 125 0 125 0 0 40 0 40 -175 0
-175 0 0 -235z"/>
<path d="M9105 3861 c-3 -5 -32 -85 -64 -178 -32 -92 -68 -193 -80 -223 -11
-30 -21 -56 -21 -57 0 -2 24 -3 53 -3 l53 0 15 48 15 47 86 3 86 3 17 -51 17
-50 55 0 c49 0 54 2 48 18 -4 9 -40 111 -81 225 -40 114 -76 212 -79 217 -8
13 -112 13 -120 1z m90 -191 c14 -40 25 -77 25 -82 0 -4 -25 -8 -55 -8 -30 0
-55 3 -55 6 0 10 41 148 47 157 8 13 11 6 38 -73z"/>
<path d="M9765 3635 l0 -235 47 0 47 0 3 98 3 97 103 3 102 3 0 39 0 40 -105
0 -105 0 0 55 0 55 120 0 120 0 0 40 0 40 -167 0 -168 0 0 -235z"/>
</g>
</svg>
